<svg xmlns="http://www.w3.org/2000/svg" viewBox="0 0 700 300">
  <path fill="#fff" d="M40 237c-23-5-40-24-40-46 0-27 25-49 58-49 5 0 11 1 16 2 14-47 59-81 113-81 26 0 50 8 69 22 22-49 74-83 134-83 78 0 142 55 149 125 11-5 23-7 36-7 51 0 93 34 97 77 17 4 28 20 28 37 0 22-20 41-47 44H86c-18 0-34-4-46-11z"/>
  <path fill="#f2fafc" opacity=".72" d="M121 250c-26 0-46-16-46-36 0-19 18-34 42-36 11-36 45-62 87-62 19 0 37 5 52 15 17-37 57-63 103-63 59 0 108 41 114 94 9-4 18-5 28-5 38 0 69 25 73 57 15 3 26 16 26 31 0 20-19 36-43 38H121z"/>
</svg>
