<svg xmlns="http://www.w3.org/2000/svg" viewBox="0 0 1440 2200" preserveAspectRatio="xMidYMid slice">
<defs>
 <linearGradient id="sky" x1="0" y1="0" x2="0" y2="1"><stop stop-color="#06445e"/><stop offset=".36" stop-color="#0a6682"/><stop offset=".72" stop-color="#2c8fa6"/><stop offset="1" stop-color="#b9d9df"/></linearGradient>
 <linearGradient id="far" x1="0" y1="0" x2="0" y2="1"><stop stop-color="#5e96a6"/><stop offset="1" stop-color="#b9d1d6"/></linearGradient>
 <linearGradient id="near" x1="0" y1="0" x2="0" y2="1"><stop stop-color="#174f65"/><stop offset="1" stop-color="#6f9daa"/></linearGradient>
 <filter id="blur"><feGaussianBlur stdDeviation="22"/></filter>
</defs>
<rect width="1440" height="2200" fill="url(#sky)"/>
<g opacity=".24" fill="#fff" filter="url(#blur)"><ellipse cx="180" cy="430" rx="310" ry="105"/><ellipse cx="490" cy="520" rx="400" ry="125"/><ellipse cx="1190" cy="390" rx="360" ry="115"/><ellipse cx="1040" cy="760" rx="470" ry="135"/></g>
<path d="M0 1170 L145 1020 255 1085 405 870 520 1035 650 790 775 1015 900 835 1035 1020 1170 890 1290 1040 1440 930 1440 1600 0 1600Z" fill="url(#far)" opacity=".72"/>
<path d="M0 1390 L180 1190 310 1305 470 1060 610 1260 760 980 910 1235 1060 1080 1210 1270 1340 1110 1440 1205 1440 1780 0 1780Z" fill="url(#near)" opacity=".84"/>
<g fill="#e9f4f5" opacity=".72"><path d="M410 870l-75 150 70-46 45 28 70 33z"/><path d="M650 790l-88 178 86-61 63 54 64 54z"/><path d="M900 835l-68 137 66-43 45 35 92 56z"/><path d="M760 980l-72 145 70-47 55 41 97 116z"/></g>
<rect y="1580" width="1440" height="620" fill="#dcebee" opacity=".30"/>
</svg>
